<svg xmlns="http://www.w3.org/2000/svg" viewBox="0 0 9.85 9.85"><title>QMark</title><g id="Layer_2" data-name="Layer 2"><g id="Layer_1-2" data-name="Layer 1"><path d="M4.94,2.75a1.32,1.32,0,0,0-1.38,1l.73.3a.62.62,0,0,1,.62-.51.44.44,0,0,1,.5.47v.08c0,.46-.37.62-1,.64v.92h.84V5.18A1.22,1.22,0,0,0,6.35,4,1.26,1.26,0,0,0,4.94,2.75Z" style="fill:#262625"/><path d="M4.87,6c-.42,0-.59.21-.59.47v.19c0,.26.17.47.59.47s.59-.21.59-.47V6.42C5.46,6.16,5.3,6,4.87,6Z" style="fill:#262625"/><path d="M4.93,0A4.93,4.93,0,1,0,9.85,4.92,4.93,4.93,0,0,0,4.93,0Zm0,8.85A3.93,3.93,0,1,1,8.85,4.92,3.93,3.93,0,0,1,4.93,8.85Z" style="fill:#262625"/></g></g></svg>